<?xml version="1.0" encoding="utf-8"?>
<svg version="1.1" xmlns:xlink="http://www.w3.org/1999/xlink" width="306px" height="48px" viewBox="1000 374  306 48" xmlns="http://www.w3.org/2000/svg">
  <path d="M 1003 381  A 4 4 0 0 1 1007 377 L 1299 377  A 4 4 0 0 1 1303 381 L 1303 415  A 4 4 0 0 1 1299 419 L 1007 419  A 4 4 0 0 1 1003 415 L 1003 381  Z " fill-rule="nonzero" fill="#ffffff" stroke="none" />
  <path d="M 1001.5 381  A 5.5 5.5 0 0 1 1007 375.5 L 1299 375.5  A 5.5 5.5 0 0 1 1304.5 381 L 1304.5 415  A 5.5 5.5 0 0 1 1299 420.5 L 1007 420.5  A 5.5 5.5 0 0 1 1001.5 415 L 1001.5 381  Z " stroke-width="3" stroke="#aaaaaa" fill="none" stroke-opacity="0.752941176470588" />
</svg>